# This file uses centimeters as units for non-parametric coordinates.

v 0.413742 -0.703901 -0.300602
v 0.158036 -0.703901 -0.486384
v -0.158036 -0.703901 -0.486383
v -0.413743 -0.703901 -0.300601
v -0.511414 -0.703901 0.000000
v -0.413742 -0.703901 0.300602
v -0.158036 -0.703901 0.486383
v 0.158036 -0.703901 0.486383
v 0.413742 -0.703901 0.300601
v 0.511414 -0.703901 0.000000
v 0.669449 -0.268866 -0.486384
v 0.255707 -0.268866 -0.786985
v -0.255707 -0.268866 -0.786985
v -0.669450 -0.268866 -0.486383
v -0.827485 -0.268866 0.000000
v -0.669449 -0.268866 0.486384
v -0.255707 -0.268866 0.786985
v 0.255707 -0.268866 0.786985
v 0.669449 -0.268866 0.486383
v 0.827485 -0.268866 0.000000
v 0.669449 0.268866 -0.486384
v 0.255707 0.268866 -0.786985
v -0.255707 0.268866 -0.786985
v -0.669450 0.268866 -0.486383
v -0.827485 0.268866 0.000000
v -0.669449 0.268866 0.486384
v -0.255707 0.268866 0.786985
v 0.255707 0.268866 0.786985
v 0.669449 0.268866 0.486383
v 0.827485 0.268866 0.000000
v 0.413742 0.703901 -0.300602
v 0.158036 0.703901 -0.486384
v -0.158036 0.703901 -0.486383
v -0.413743 0.703901 -0.300601
v -0.511414 0.703901 0.000000
v -0.413742 0.703901 0.300602
v -0.158036 0.703901 0.486383
v 0.158036 0.703901 0.486383
v 0.413742 0.703901 0.300601
v 0.511414 0.703901 0.000000
v 0.000000 -0.870069 0.000000
v 0.000000 0.870069 0.000000
vt 0.000000 0.200000
vt 0.100000 0.200000
vt 0.200000 0.200000
vt 0.300000 0.200000
vt 0.400000 0.200000
vt 0.500000 0.200000
vt 0.600000 0.200000
vt 0.700000 0.200000
vt 0.800000 0.200000
vt 0.900000 0.200000
vt 1.000000 0.200000
vt 0.000000 0.400000
vt 0.100000 0.400000
vt 0.200000 0.400000
vt 0.300000 0.400000
vt 0.400000 0.400000
vt 0.500000 0.400000
vt 0.600000 0.400000
vt 0.700000 0.400000
vt 0.800000 0.400000
vt 0.900000 0.400000
vt 1.000000 0.400000
vt 0.000000 0.600000
vt 0.100000 0.600000
vt 0.200000 0.600000
vt 0.300000 0.600000
vt 0.400000 0.600000
vt 0.500000 0.600000
vt 0.600000 0.600000
vt 0.700000 0.600000
vt 0.800000 0.600000
vt 0.900000 0.600000
vt 1.000000 0.600000
vt 0.000000 0.800000
vt 0.100000 0.800000
vt 0.200000 0.800000
vt 0.300000 0.800000
vt 0.400000 0.800000
vt 0.500000 0.800000
vt 0.600000 0.800000
vt 0.700000 0.800000
vt 0.800000 0.800000
vt 0.900000 0.800000
vt 1.000000 0.800000
vt 0.050000 0.000000
vt 0.150000 0.000000
vt 0.250000 0.000000
vt 0.350000 0.000000
vt 0.450000 0.000000
vt 0.550000 0.000000
vt 0.650000 0.000000
vt 0.750000 0.000000
vt 0.850000 0.000000
vt 0.950000 0.000000
vt 0.050000 1.000000
vt 0.150000 1.000000
vt 0.250000 1.000000
vt 0.350000 1.000000
vt 0.450000 1.000000
vt 0.550000 1.000000
vt 0.650000 1.000000
vt 0.750000 1.000000
vt 0.850000 1.000000
vt 0.950000 1.000000
vn 0.483572 -0.568473 -0.665580
vn 0.483572 -0.568473 -0.665580
vn 0.483572 -0.568473 -0.665580
vn 0.483572 -0.568473 -0.665580
vn 0.000000 -0.568473 -0.822702
vn -0.000000 -0.568473 -0.822702
vn -0.000000 -0.568473 -0.822702
vn -0.000000 -0.568473 -0.822702
vn -0.483572 -0.568473 -0.665580
vn -0.483572 -0.568473 -0.665580
vn -0.483572 -0.568473 -0.665580
vn -0.483572 -0.568473 -0.665580
vn -0.782436 -0.568473 -0.254229
vn -0.782436 -0.568473 -0.254229
vn -0.782436 -0.568473 -0.254229
vn -0.782436 -0.568473 -0.254229
vn -0.782436 -0.568473 0.254229
vn -0.782436 -0.568473 0.254229
vn -0.782436 -0.568473 0.254229
vn -0.782436 -0.568473 0.254229
vn -0.483572 -0.568473 0.665580
vn -0.483572 -0.568473 0.665580
vn -0.483572 -0.568473 0.665580
vn -0.483572 -0.568473 0.665580
vn 0.000000 -0.568473 0.822702
vn 0.000000 -0.568473 0.822702
vn 0.000000 -0.568473 0.822702
vn 0.000000 -0.568473 0.822702
vn 0.483572 -0.568473 0.665580
vn 0.483572 -0.568473 0.665580
vn 0.483572 -0.568473 0.665580
vn 0.483572 -0.568473 0.665580
vn 0.782436 -0.568473 0.254229
vn 0.782436 -0.568473 0.254229
vn 0.782436 -0.568473 0.254229
vn 0.782436 -0.568473 0.254229
vn 0.782436 -0.568473 -0.254229
vn 0.782436 -0.568473 -0.254229
vn 0.782436 -0.568473 -0.254229
vn 0.782436 -0.568473 -0.254229
vn 0.587785 0.000000 -0.809017
vn 0.587785 0.000000 -0.809017
vn 0.587785 0.000000 -0.809017
vn 0.587785 0.000000 -0.809017
vn 0.000000 0.000000 -1.000000
vn -0.000000 0.000000 -1.000000
vn -0.000000 0.000000 -1.000000
vn -0.000000 0.000000 -1.000000
vn -0.587785 0.000000 -0.809017
vn -0.587785 0.000000 -0.809017
vn -0.587785 0.000000 -0.809017
vn -0.587785 0.000000 -0.809017
vn -0.951057 0.000000 -0.309017
vn -0.951057 0.000000 -0.309017
vn -0.951057 0.000000 -0.309017
vn -0.951057 0.000000 -0.309017
vn -0.951057 0.000000 0.309017
vn -0.951057 0.000000 0.309017
vn -0.951057 0.000000 0.309017
vn -0.951057 0.000000 0.309017
vn -0.587785 0.000000 0.809017
vn -0.587785 0.000000 0.809017
vn -0.587785 0.000000 0.809017
vn -0.587785 0.000000 0.809017
vn 0.000000 0.000000 1.000000
vn 0.000000 0.000000 1.000000
vn 0.000000 0.000000 1.000000
vn 0.000000 0.000000 1.000000
vn 0.587785 0.000000 0.809017
vn 0.587785 0.000000 0.809017
vn 0.587785 0.000000 0.809017
vn 0.587785 0.000000 0.809017
vn 0.951057 0.000000 0.309017
vn 0.951057 0.000000 0.309017
vn 0.951057 0.000000 0.309017
vn 0.951057 0.000000 0.309017
vn 0.951057 0.000000 -0.309017
vn 0.951057 0.000000 -0.309017
vn 0.951057 0.000000 -0.309017
vn 0.951057 0.000000 -0.309017
vn 0.483572 0.568473 -0.665580
vn 0.483572 0.568473 -0.665580
vn 0.483572 0.568473 -0.665580
vn 0.483572 0.568473 -0.665580
vn 0.000000 0.568473 -0.822702
vn -0.000000 0.568473 -0.822702
vn -0.000000 0.568473 -0.822702
vn -0.000000 0.568473 -0.822702
vn -0.483572 0.568473 -0.665580
vn -0.483572 0.568473 -0.665580
vn -0.483572 0.568473 -0.665580
vn -0.483572 0.568473 -0.665580
vn -0.782436 0.568473 -0.254229
vn -0.782436 0.568473 -0.254229
vn -0.782436 0.568473 -0.254229
vn -0.782436 0.568473 -0.254229
vn -0.782436 0.568473 0.254229
vn -0.782436 0.568473 0.254229
vn -0.782436 0.568473 0.254229
vn -0.782436 0.568473 0.254229
vn -0.483572 0.568473 0.665580
vn -0.483572 0.568473 0.665580
vn -0.483572 0.568473 0.665580
vn -0.483572 0.568473 0.665580
vn 0.000000 0.568473 0.822702
vn 0.000000 0.568473 0.822702
vn 0.000000 0.568473 0.822702
vn 0.000000 0.568473 0.822702
vn 0.483572 0.568473 0.665580
vn 0.483572 0.568473 0.665580
vn 0.483572 0.568473 0.665580
vn 0.483572 0.568473 0.665580
vn 0.782436 0.568473 0.254229
vn 0.782436 0.568473 0.254229
vn 0.782436 0.568473 0.254229
vn 0.782436 0.568473 0.254229
vn 0.782436 0.568473 -0.254229
vn 0.782436 0.568473 -0.254229
vn 0.782436 0.568473 -0.254229
vn 0.782436 0.568473 -0.254229
vn 0.190028 -0.946299 -0.261550
vn 0.190028 -0.946299 -0.261550
vn 0.190028 -0.946298 -0.261550
vn -0.000000 -0.946299 -0.323294
vn -0.000000 -0.946299 -0.323294
vn -0.000000 -0.946299 -0.323294
vn -0.190028 -0.946299 -0.261550
vn -0.190028 -0.946299 -0.261550
vn -0.190028 -0.946299 -0.261550
vn -0.307471 -0.946299 -0.099903
vn -0.307471 -0.946299 -0.099903
vn -0.307471 -0.946299 -0.099903
vn -0.307471 -0.946298 0.099904
vn -0.307471 -0.946298 0.099904
vn -0.307471 -0.946298 0.099904
vn -0.190028 -0.946299 0.261550
vn -0.190028 -0.946299 0.261550
vn -0.190027 -0.946299 0.261550
vn 0.000000 -0.946299 0.323294
vn 0.000000 -0.946299 0.323294
vn 0.000000 -0.946299 0.323294
vn 0.190028 -0.946299 0.261550
vn 0.190028 -0.946299 0.261550
vn 0.190028 -0.946299 0.261550
vn 0.307471 -0.946298 0.099903
vn 0.307471 -0.946298 0.099903
vn 0.307471 -0.946298 0.099903
vn 0.307471 -0.946298 -0.099903
vn 0.307471 -0.946298 -0.099903
vn 0.307471 -0.946298 -0.099903
vn 0.190028 0.946299 -0.261550
vn 0.190028 0.946299 -0.261550
vn 0.190028 0.946298 -0.261550
vn -0.000000 0.946299 -0.323294
vn -0.000000 0.946299 -0.323294
vn -0.000000 0.946299 -0.323294
vn -0.190028 0.946299 -0.261550
vn -0.190028 0.946299 -0.261550
vn -0.190028 0.946299 -0.261550
vn -0.307471 0.946298 -0.099903
vn -0.307471 0.946299 -0.099903
vn -0.307471 0.946299 -0.099903
vn -0.307471 0.946298 0.099903
vn -0.307471 0.946298 0.099903
vn -0.307471 0.946298 0.099903
vn -0.190028 0.946299 0.261550
vn -0.190028 0.946299 0.261550
vn -0.190028 0.946299 0.261550
vn 0.000000 0.946299 0.323294
vn 0.000000 0.946299 0.323294
vn 0.000000 0.946299 0.323294
vn 0.190028 0.946299 0.261550
vn 0.190028 0.946299 0.261550
vn 0.190028 0.946299 0.261550
vn 0.307471 0.946298 0.099903
vn 0.307471 0.946298 0.099903
vn 0.307471 0.946298 0.099903
vn 0.307471 0.946298 -0.099903
vn 0.307471 0.946298 -0.099903
vn 0.307471 0.946298 -0.099903
f 1/1/1 2/2/2 11/12/3
f 11/12/3 2/2/2 12/13/4
f 2/2/5 3/3/6 12/13/7
f 12/13/7 3/3/6 13/14/8
f 3/3/9 4/4/10 13/14/11
f 13/14/11 4/4/10 14/15/12
f 4/4/13 5/5/14 14/15/15
f 14/15/15 5/5/14 15/16/16
f 5/5/17 6/6/18 15/16/19
f 15/16/19 6/6/18 16/17/20
f 6/6/21 7/7/22 16/17/23
f 16/17/23 7/7/22 17/18/24
f 7/7/25 8/8/26 17/18/27
f 17/18/27 8/8/26 18/19/28
f 8/8/29 9/9/30 18/19/31
f 18/19/31 9/9/30 19/20/32
f 9/9/33 10/10/34 19/20/35
f 19/20/35 10/10/34 20/21/36
f 10/10/37 1/11/38 20/21/39
f 20/21/39 1/11/38 11/22/40
f 11/12/41 12/13/42 21/23/43
f 21/23/43 12/13/42 22/24/44
f 12/13/45 13/14/46 22/24/47
f 22/24/47 13/14/46 23/25/48
f 13/14/49 14/15/50 23/25/51
f 23/25/51 14/15/50 24/26/52
f 14/15/53 15/16/54 24/26/55
f 24/26/55 15/16/54 25/27/56
f 15/16/57 16/17/58 25/27/59
f 25/27/59 16/17/58 26/28/60
f 16/17/61 17/18/62 26/28/63
f 26/28/63 17/18/62 27/29/64
f 17/18/65 18/19/66 27/29/67
f 27/29/67 18/19/66 28/30/68
f 18/19/69 19/20/70 28/30/71
f 28/30/71 19/20/70 29/31/72
f 19/20/73 20/21/74 29/31/75
f 29/31/75 20/21/74 30/32/76
f 20/21/77 11/22/78 30/32/79
f 30/32/79 11/22/78 21/33/80
f 21/23/81 22/24/82 31/34/83
f 31/34/83 22/24/82 32/35/84
f 22/24/85 23/25/86 32/35/87
f 32/35/87 23/25/86 33/36/88
f 23/25/89 24/26/90 33/36/91
f 33/36/91 24/26/90 34/37/92
f 24/26/93 25/27/94 34/37/95
f 34/37/95 25/27/94 35/38/96
f 25/27/97 26/28/98 35/38/99
f 35/38/99 26/28/98 36/39/100
f 26/28/101 27/29/102 36/39/103
f 36/39/103 27/29/102 37/40/104
f 27/29/105 28/30/106 37/40/107
f 37/40/107 28/30/106 38/41/108
f 28/30/109 29/31/110 38/41/111
f 38/41/111 29/31/110 39/42/112
f 29/31/113 30/32/114 39/42/115
f 39/42/115 30/32/114 40/43/116
f 30/32/117 21/33/118 40/43/119
f 40/43/119 21/33/118 31/44/120
f 2/2/121 1/1/122 41/45/123
f 3/3/124 2/2/125 41/46/126
f 4/4/127 3/3/128 41/47/129
f 5/5/130 4/4/131 41/48/132
f 6/6/133 5/5/134 41/49/135
f 7/7/136 6/6/137 41/50/138
f 8/8/139 7/7/140 41/51/141
f 9/9/142 8/8/143 41/52/144
f 10/10/145 9/9/146 41/53/147
f 1/11/148 10/10/149 41/54/150
f 31/34/151 32/35/152 42/55/153
f 32/35/154 33/36/155 42/56/156
f 33/36/157 34/37/158 42/57/159
f 34/37/160 35/38/161 42/58/162
f 35/38/163 36/39/164 42/59/165
f 36/39/166 37/40/167 42/60/168
f 37/40/169 38/41/170 42/61/171
f 38/41/172 39/42/173 42/62/174
f 39/42/175 40/43/176 42/63/177
f 40/43/178 31/44/179 42/64/180
