# This file uses centimeters as units for non-parametric coordinates.

v -1.314340 -1.418853 1.808399
v 1.219208 -1.418853 1.808399
v -1.314340 1.443174 1.808399
v 1.219208 1.443174 1.808399
v -1.314340 1.443174 -1.557401
v 1.219208 1.443174 -1.557401
v -1.314340 -1.418853 -1.557401
v 1.219208 -1.418853 -1.557401
v -1.314340 -1.418853 1.808399
v 1.219208 -1.418853 1.808399
v -1.314340 1.443174 1.808399
v 1.219208 1.443174 1.808399
v -1.314340 1.443174 -1.557401
v 1.219208 1.443174 -1.557401
v -1.314340 -1.418853 -1.557401
v 1.219208 -1.418853 -1.557401
vt 0.000000 0.000000
vt 0.000000 0.000000
vt 0.000000 1.000000
vt 0.000000 1.000000
vt 1.000000 1.000000
vt 1.000000 1.000000
vt 1.000000 0.000000
vt 1.000000 0.000000
vt 0.000000 0.000000
vt 0.000000 0.000000
vt 0.000000 1.000000
vt 0.000000 1.000000
vt 1.000000 1.000000
vt 1.000000 1.000000
vt 1.000000 0.000000
vt 1.000000 0.000000
vt -0.000000 0.000000
vt 1.000000 0.000000
vt -0.000000 1.000000
vt 1.000000 1.000000
vt -0.000000 1.000000
vt 1.000000 1.000000
vt -0.000000 0.000000
vt 1.000000 0.000000
vt -0.000000 0.000000
vt 1.000000 0.000000
vt -0.000000 1.000000
vt 1.000000 1.000000
vt -0.000000 1.000000
vt 1.000000 1.000000
vt -0.000000 0.000000
vt 1.000000 0.000000
vn 0.000000 0.000000 1.000000
vn 0.000000 0.000000 1.000000
vn 0.000000 0.000000 1.000000
vn 0.000000 0.000000 1.000000
vn 0.000000 0.000000 1.000000
vn 0.000000 0.000000 1.000000
vn 0.000000 1.000000 0.000000
vn 0.000000 1.000000 0.000000
vn 0.000000 1.000000 0.000000
vn 0.000000 1.000000 0.000000
vn 0.000000 1.000000 0.000000
vn 0.000000 1.000000 0.000000
vn 0.000000 0.000000 -1.000000
vn 0.000000 0.000000 -1.000000
vn 0.000000 0.000000 -1.000000
vn 0.000000 0.000000 -1.000000
vn 0.000000 0.000000 -1.000000
vn 0.000000 0.000000 -1.000000
vn 0.000000 -1.000000 0.000000
vn 0.000000 -1.000000 0.000000
vn 0.000000 -1.000000 0.000000
vn 0.000000 -1.000000 0.000000
vn 0.000000 -1.000000 0.000000
vn 0.000000 -1.000000 0.000000
vn 1.000000 0.000000 0.000000
vn 1.000000 0.000000 0.000000
vn 1.000000 0.000000 0.000000
vn 1.000000 0.000000 0.000000
vn 1.000000 0.000000 0.000000
vn 1.000000 0.000000 0.000000
vn -1.000000 0.000000 0.000000
vn -1.000000 0.000000 0.000000
vn -1.000000 0.000000 0.000000
vn -1.000000 0.000000 0.000000
vn -1.000000 0.000000 0.000000
vn -1.000000 0.000000 0.000000
vn 0.000000 0.000000 1.000000
vn 0.000000 0.000000 1.000000
vn 0.000000 0.000000 1.000000
vn 0.000000 0.000000 1.000000
vn 0.000000 0.000000 1.000000
vn 0.000000 0.000000 1.000000
vn 0.000000 1.000000 0.000000
vn 0.000000 1.000000 0.000000
vn 0.000000 1.000000 0.000000
vn 0.000000 1.000000 0.000000
vn 0.000000 1.000000 0.000000
vn 0.000000 1.000000 0.000000
vn 0.000000 0.000000 -1.000000
vn 0.000000 0.000000 -1.000000
vn 0.000000 0.000000 -1.000000
vn 0.000000 0.000000 -1.000000
vn 0.000000 0.000000 -1.000000
vn 0.000000 0.000000 -1.000000
vn 0.000000 -1.000000 0.000000
vn 0.000000 -1.000000 0.000000
vn 0.000000 -1.000000 0.000000
vn 0.000000 -1.000000 0.000000
vn 0.000000 -1.000000 0.000000
vn 0.000000 -1.000000 0.000000
vn 1.000000 0.000000 0.000000
vn 1.000000 0.000000 0.000000
vn 1.000000 0.000000 0.000000
vn 1.000000 0.000000 0.000000
vn 1.000000 0.000000 0.000000
vn 1.000000 0.000000 0.000000
vn -1.000000 0.000000 0.000000
vn -1.000000 0.000000 0.000000
vn -1.000000 0.000000 0.000000
vn -1.000000 0.000000 0.000000
vn -1.000000 0.000000 0.000000
vn -1.000000 0.000000 0.000000
f 1/17/1 2/18/2 3/19/3
f 3/19/4 2/18/5 4/20/6
f 3/25/7 4/26/8 5/27/9
f 5/27/10 4/26/11 6/28/12
f 5/21/13 6/22/14 7/23/15
f 7/23/16 6/22/17 8/24/18
f 7/29/19 8/30/20 1/31/21
f 1/31/22 8/30/23 2/32/24
f 2/2/25 8/8/26 4/4/27
f 4/4/28 8/8/29 6/6/30
f 7/7/31 1/1/32 5/5/33
f 5/5/34 1/1/35 3/3/36
f 9/9/37 10/10/38 11/11/39
f 11/11/40 10/10/41 12/12/42
f 11/11/43 12/12/44 13/13/45
f 13/13/46 12/12/47 14/14/48
f 13/13/49 14/14/50 15/15/51
f 15/15/52 14/14/53 16/16/54
f 15/15/55 16/16/56 9/9/57
f 9/9/58 16/16/59 10/10/60
f 10/10/61 16/16/62 12/12/63
f 12/12/64 16/16/65 14/14/66
f 15/15/67 9/9/68 13/13/69
f 13/13/70 9/9/71 11/11/72
